<svg viewBox="0 0 1063 400" xmlns="http://www.w3.org/2000/svg"><g><g><g><g><g><line x1="51.5625" y1="377" x2="46.5625" y2="377" style="visibility: inherit;" fill="rgb(0, 0, 0)" stroke="rgb(204, 204, 204)" stroke-width="1px"></line><line x1="51.5625" y1="335.1111111111111" x2="46.5625" y2="335.1111111111111" style="visibility: inherit;" fill="rgb(0, 0, 0)" stroke="rgb(204, 204, 204)" stroke-width="1px"></line><line x1="51.5625" y1="293.2222222222222" x2="46.5625" y2="293.2222222222222" style="visibility: inherit;" fill="rgb(0, 0, 0)" stroke="rgb(204, 204, 204)" stroke-width="1px"></line><line x1="51.5625" y1="251.33333333333337" x2="46.5625" y2="251.33333333333337" style="visibility: inherit;" fill="rgb(0, 0, 0)" stroke="rgb(204, 204, 204)" stroke-width="1px"></line><line x1="51.5625" y1="209.4444444444444" x2="46.5625" y2="209.4444444444444" style="visibility: inherit;" fill="rgb(0, 0, 0)" stroke="rgb(204, 204, 204)" stroke-width="1px"></line><line x1="51.5625" y1="167.5555555555556" x2="46.5625" y2="167.5555555555556" style="visibility: inherit;" fill="rgb(0, 0, 0)" stroke="rgb(204, 204, 204)" stroke-width="1px"></line><line x1="51.5625" y1="125.66666666666669" x2="46.5625" y2="125.66666666666669" style="visibility: inherit;" fill="rgb(0, 0, 0)" stroke="rgb(204, 204, 204)" stroke-width="1px"></line><line x1="51.5625" y1="83.77777777777786" x2="46.5625" y2="83.77777777777786" style="visibility: inherit;" fill="rgb(0, 0, 0)" stroke="rgb(204, 204, 204)" stroke-width="1px"></line><line x1="51.5625" y1="41.88888888888891" x2="46.5625" y2="41.88888888888891" style="visibility: inherit;" fill="rgb(0, 0, 0)" stroke="rgb(204, 204, 204)" stroke-width="1px"></line><line x1="51.5625" y1="0" x2="46.5625" y2="0" style="visibility: inherit;" fill="rgb(0, 0, 0)" stroke="rgb(204, 204, 204)" stroke-width="1px"></line></g><g transform="translate(41.5625, 0)"><text x="0" y="377" dx="0em" dy="0.3em" style="text-anchor: end; visibility: hidden; font-family: Roboto, sans-serif; font-size: 12px; font-weight: 200;" fill="rgb(33, 33, 33)" stroke="none" stroke-width="1px">0.35</text><text x="0" y="335.1111111111111" dx="0em" dy="0.3em" style="text-anchor: end; visibility: inherit; font-family: Roboto, sans-serif; font-size: 12px; font-weight: 200;" fill="rgb(33, 33, 33)" stroke="none" stroke-width="1px">0.4</text><text x="0" y="293.2222222222222" dx="0em" dy="0.3em" style="text-anchor: end; visibility: inherit; font-family: Roboto, sans-serif; font-size: 12px; font-weight: 200;" fill="rgb(33, 33, 33)" stroke="none" stroke-width="1px">0.45</text><text x="0" y="251.33333333333337" dx="0em" dy="0.3em" style="text-anchor: end; visibility: inherit; font-family: Roboto, sans-serif; font-size: 12px; font-weight: 200;" fill="rgb(33, 33, 33)" stroke="none" stroke-width="1px">0.5</text><text x="0" y="209.4444444444444" dx="0em" dy="0.3em" style="text-anchor: end; visibility: inherit; font-family: Roboto, sans-serif; font-size: 12px; font-weight: 200;" fill="rgb(33, 33, 33)" stroke="none" stroke-width="1px">0.55</text><text x="0" y="167.5555555555556" dx="0em" dy="0.3em" style="text-anchor: end; visibility: inherit; font-family: Roboto, sans-serif; font-size: 12px; font-weight: 200;" fill="rgb(33, 33, 33)" stroke="none" stroke-width="1px">0.6</text><text x="0" y="125.66666666666669" dx="0em" dy="0.3em" style="text-anchor: end; visibility: inherit; font-family: Roboto, sans-serif; font-size: 12px; font-weight: 200;" fill="rgb(33, 33, 33)" stroke="none" stroke-width="1px">0.65</text><text x="0" y="83.77777777777786" dx="0em" dy="0.3em" style="text-anchor: end; visibility: inherit; font-family: Roboto, sans-serif; font-size: 12px; font-weight: 200;" fill="rgb(33, 33, 33)" stroke="none" stroke-width="1px">0.7</text><text x="0" y="41.88888888888891" dx="0em" dy="0.3em" style="text-anchor: end; visibility: inherit; font-family: Roboto, sans-serif; font-size: 12px; font-weight: 200;" fill="rgb(33, 33, 33)" stroke="none" stroke-width="1px">0.75</text><text x="0" y="0" dx="0em" dy="0.3em" style="text-anchor: end; visibility: hidden; font-family: Roboto, sans-serif; font-size: 12px; font-weight: 200;" fill="rgb(33, 33, 33)" stroke="none" stroke-width="1px">0.8</text></g><line x1="51.5625" y1="0" x2="51.5625" y2="377" fill="rgb(0, 0, 0)" stroke="rgb(204, 204, 204)" stroke-width="1px"></line></g></g><g transform="translate(51, 0)" clip-path="url(#clip_0)"><clipPath id="clip_0"><rect width="1011" height="377"></rect></clipPath><g><g><g><line x1="0" y1="0" x2="0" y2="377" fill="rgb(0, 0, 0)" stroke="rgb(66, 66, 66)" stroke-width="1px" opacity="0.25"></line><line x1="84.28645833333333" y1="0" x2="84.28645833333333" y2="377" fill="rgb(0, 0, 0)" stroke="rgb(66, 66, 66)" stroke-width="1px" opacity="0.25"></line><line x1="168.57291666666666" y1="0" x2="168.57291666666666" y2="377" fill="rgb(0, 0, 0)" stroke="rgb(66, 66, 66)" stroke-width="1px" opacity="0.25"></line><line x1="252.859375" y1="0" x2="252.859375" y2="377" fill="rgb(0, 0, 0)" stroke="rgb(66, 66, 66)" stroke-width="1px" opacity="0.25"></line><line x1="337.1458333333333" y1="0" x2="337.1458333333333" y2="377" fill="rgb(0, 0, 0)" stroke="rgb(66, 66, 66)" stroke-width="1px" opacity="0.25"></line><line x1="421.4322916666667" y1="0" x2="421.4322916666667" y2="377" fill="rgb(0, 0, 0)" stroke="rgb(66, 66, 66)" stroke-width="1px" opacity="0.25"></line><line x1="505.71875" y1="0" x2="505.71875" y2="377" fill="rgb(0, 0, 0)" stroke="rgb(66, 66, 66)" stroke-width="1px" opacity="0.25"></line><line x1="590.0052083333334" y1="0" x2="590.0052083333334" y2="377" fill="rgb(0, 0, 0)" stroke="rgb(66, 66, 66)" stroke-width="1px" opacity="0.25"></line><line x1="674.2916666666666" y1="0" x2="674.2916666666666" y2="377" fill="rgb(0, 0, 0)" stroke="rgb(66, 66, 66)" stroke-width="1px" opacity="0.25"></line><line x1="758.578125" y1="0" x2="758.578125" y2="377" fill="rgb(0, 0, 0)" stroke="rgb(66, 66, 66)" stroke-width="1px" opacity="0.25"></line><line x1="842.8645833333334" y1="0" x2="842.8645833333334" y2="377" fill="rgb(0, 0, 0)" stroke="rgb(66, 66, 66)" stroke-width="1px" opacity="0.25"></line><line x1="927.1510416666666" y1="0" x2="927.1510416666666" y2="377" fill="rgb(0, 0, 0)" stroke="rgb(66, 66, 66)" stroke-width="1px" opacity="0.25"></line><line x1="1011.4375" y1="0" x2="1011.4375" y2="377" fill="rgb(0, 0, 0)" stroke="rgb(66, 66, 66)" stroke-width="1px" opacity="0.25"></line></g><g><line x1="0" y1="377" x2="1011.4375" y2="377" fill="rgb(0, 0, 0)" stroke="rgb(66, 66, 66)" stroke-width="1px" opacity="0.25"></line><line x1="0" y1="335.1111111111111" x2="1011.4375" y2="335.1111111111111" fill="rgb(0, 0, 0)" stroke="rgb(66, 66, 66)" stroke-width="1px" opacity="0.25"></line><line x1="0" y1="293.2222222222222" x2="1011.4375" y2="293.2222222222222" fill="rgb(0, 0, 0)" stroke="rgb(66, 66, 66)" stroke-width="1px" opacity="0.25"></line><line x1="0" y1="251.33333333333337" x2="1011.4375" y2="251.33333333333337" fill="rgb(0, 0, 0)" stroke="rgb(66, 66, 66)" stroke-width="1px" opacity="0.25"></line><line x1="0" y1="209.4444444444444" x2="1011.4375" y2="209.4444444444444" fill="rgb(0, 0, 0)" stroke="rgb(66, 66, 66)" stroke-width="1px" opacity="0.25"></line><line x1="0" y1="167.5555555555556" x2="1011.4375" y2="167.5555555555556" fill="rgb(0, 0, 0)" stroke="rgb(66, 66, 66)" stroke-width="1px" opacity="0.25"></line><line x1="0" y1="125.66666666666669" x2="1011.4375" y2="125.66666666666669" fill="rgb(0, 0, 0)" stroke="rgb(66, 66, 66)" stroke-width="1px" opacity="0.25"></line><line x1="0" y1="83.77777777777786" x2="1011.4375" y2="83.77777777777786" fill="rgb(0, 0, 0)" stroke="rgb(66, 66, 66)" stroke-width="1px" opacity="0.25"></line><line x1="0" y1="41.88888888888891" x2="1011.4375" y2="41.88888888888891" fill="rgb(0, 0, 0)" stroke="rgb(66, 66, 66)" stroke-width="1px" opacity="0.25"></line><line x1="0" y1="0" x2="1011.4375" y2="0" fill="rgb(0, 0, 0)" stroke="rgb(66, 66, 66)" stroke-width="1px" opacity="0.25"></line></g></g></g><g><g><line x1="0" y1="670.2222222222222" x2="1011.4375" y2="670.2222222222222" fill="rgb(0, 0, 0)" stroke="rgb(153, 153, 153)" stroke-width="1.5px"></line></g></g><g><g><line x1="84.28645833333333" y1="0" x2="84.28645833333333" y2="377" fill="rgb(0, 0, 0)" stroke="rgb(153, 153, 153)" stroke-width="1.5px"></line></g></g><g><g><g><g><g><path stroke="rgb(0, 119, 187)" stroke-width="2px" d="M86.81505208333333,84.46430028809442L87.23648437499999,40.01064195897849L88.92221354166666,25.34058855071908L89.34364583333333,59.17180461343987L90.18651041666668,57.66041791088856L90.60794270833334,51.03558742933159L91.029375,19.789222508098213L91.87223958333334,60.68169808219518L92.293671875,65.3218608915528L92.71510416666666,33.10603289067203L93.13653645833334,28.489173721736194L94.822265625,42.25157406602329L98.61515625,78.69268000653102L99.03658854166666,109.94273513541442L99.879453125,132.95718999566395L101.14375000000001,159.4664975887228L101.56518229166667,145.65618795391006L102.40804687500001,139.15713164226327L103.25091145833333,166.42023738890427L103.67234375,183.06927048295228L104.51520833333333,161.20907369313232L105.35807291666667,160.44455839619332L105.77950520833333,163.67857116652905L107.04380208333333,195.99463898873066L107.465234375,241.25500128895132L107.88666666666667,241.91765004452975L108.30809895833333,186.1523645677809L108.72953125,178.71119155383192L109.993828125,166.55289359144822L110.41526041666665,189.77079945382243L111.258125,210.21753711262787L112.10098958333334,202.80172235546075L112.522421875,220.85638311889048L112.94385416666667,225.72848443538118L113.36528645833333,242.93774740818753L114.62958333333333,241.92091755368722L115.051015625,230.380289826687L115.47244791666667,233.25103080974785L115.89388020833333,187.43111482211006L116.73674479166667,176.41416755272L118.00104166666667,189.39419434222714L120.10820312499999,226.72622792383353L120.52963541666666,187.51833952999718L120.95106770833333,167.09367893834025L121.3725,165.54000889728343L121.79393229166668,158.31626015672998L122.21536458333334,164.6982177285949L124.32252604166666,188.75000984522322L127.693984375,168.07508776390094L128.95828125,196.68543272321816L129.3797135416667,205.9852688087469L132.32973958333332,223.59553841729124L133.59403645833333,243.2267215383478L134.43690104166666,250.39582040305262L134.85833333333332,251.59615864062252L135.279765625,212.72332477259195L136.96549479166666,269.9120634378377L137.38692708333335,271.95381502994223L137.808359375,272.05222243348425L139.07265625000002,297.88360015320706L139.49408854166666,271.1114318568906L140.75838541666667,213.35822475880022L142.44411458333335,179.75528444473355L143.28697916666667,197.5462775088813L144.12984375,223.94964026555235L144.55127604166665,247.24709004316284L144.97270833333334,278.0730606048519L145.39414062499998,225.21191807033566L147.07986979166665,238.7489216532824L147.922734375,267.746727240474L149.18703125,247.3650904252475L149.60846354166668,266.7362578086662L150.02989583333334,253.8057589474881L150.87276041666667,260.7065893033616L151.29419270833336,265.638794052437L151.715625,248.08093012773426L152.979921875,278.8147026701973L153.82278645833333,280.62752102770975L154.24421875,189.05094211805343L155.0870833333333,236.3739484135153L155.508515625,221.95525727705547L156.7728125,234.73293078364762L158.87997395833332,229.06941715862783L159.30140625,242.2424769029868L159.72283854166668,251.33459661690844L160.565703125,207.37238201604697L160.9871354166667,226.0156836416706L161.83,203.43480611878937L162.67286458333334,192.11144306483848L163.094296875,209.78807124297273L163.51572916666666,201.7450563001659L163.93716145833332,210.94727285565432L164.78002604166664,216.1812742278002L165.20145833333333,226.92608458681377L168.151484375,262.4461170129983L169.83721354166667,228.28805442410757L171.52294270833335,207.7387273111757L171.944375,210.45667859573726L172.36580729166667,205.9624074048043L174.05153645833335,246.18264476535168L175.31583333333333,292.91733813861805L176.58013020833334,288.88433701542886L177.00156249999998,256.59675737800256L178.265859375,263.85051891091035L178.68729166666665,243.2414141840028L179.53015625,238.63412211150978L179.95158854166667,255.08710397369296L180.37302083333336,296.9006010199783L181.21588541666668,265.5674368245521L181.63731770833334,255.24172345617126L182.48018229166667,264.817627328216L182.90161458333336,252.53084062193568L183.323046875,258.88201811306516L184.58734375,270.20617173349564L185.851640625,288.9199454679233L187.95880208333332,262.8796479744863L188.80166666666668,239.2935820658231L189.64453125,234.48304697508954L190.0659635416667,231.33110929179068L192.173125,246.528036359834L193.437421875,259.1321861449206L193.85885416666667,233.88860547628616L194.28028645833334,232.23956892542014L194.70171875,255.82808430649692L195.54458333333332,259.9408729797738L197.2303125,232.09188750144662L198.07317708333332,226.58805043486188L198.91604166666664,257.2452476600057L199.75890625,238.13816525944875L201.86606770833333,261.11340478637436L202.70893229166666,267.4492484517943L204.39466145833333,262.7257052560148L206.50182291666667,292.5000053796204L207.3446875,279.7544960987388L207.76611979166665,250.7306147158568L209.03041666666667,261.1019764321634L209.87328125,248.52207034560234L210.29471354166665,264.2383622696596L210.71614583333334,272.6487552121969L211.55901041666667,264.5646250232142L211.98044270833336,246.9240510772118L212.401875,215.00400805204467L214.08760416666667,248.44263661011337L214.50903645833336,223.01138585205774L215.35190104166668,246.40981202427756L216.61619791666666,263.5090017940852L218.3019270833333,284.37354619262135L218.723359375,296.58219368101334L219.14479166666666,295.87446658185496L219.56622395833332,288.2078622469256L220.40908854166668,273.52220774359535L221.6733854166667,256.70390583012056L222.09481770833332,261.87502487527127L222.51625,300.3719210520328L223.780546875,269.0074343406788L224.2019791666667,248.27331844377971L225.04484375,279.24056435868215L227.5734375,262.7084329361424L228.41630208333333,256.4777457218193L229.68059895833332,277.8874136627211L230.10203125,264.2708931193381L230.94489583333333,258.03841620836437L231.366328125,301.67889046628216L233.47348958333333,295.5853116509851L233.89492187500002,279.2336562526083L234.73778645833335,290.44178092523885L235.58065104166667,281.6604111488661L236.00208333333333,268.02706237543964L236.42351562500002,286.5941862339338L237.68781249999998,291.1901505885591L238.10924479166667,289.2456277587853L239.37354166666665,267.17443794813136L239.79497395833334,251.8661942384358L240.63783854166667,236.33061767628087L241.05927083333333,257.9318671074792L241.90213541666665,278.08877406269676L243.58786458333336,235.36157754245957L244.009296875,249.0516211805423L244.43072916666668,250.63304154580908L245.27359375,276.7353470885454L245.69502604166667,287.5217924030176L246.95932291666668,269.60381912128105L247.38075520833334,294.02378879018875L247.8021875,266.0221502954789L248.22361979166666,247.38436169607942L249.066484375,262.941331341963L249.48791666666668,276.28281276463855L249.9093489583333,278.1867585032215L250.33078125,258.2224911705737L254.12367187499999,235.658375058603L254.54510416666665,265.33847535890243L255.38796875,216.34227555008547L256.652265625,233.403666481115L259.60229166666664,220.28290615231708L260.02372395833333,215.16782540729193L261.709453125,207.85012932343946L262.1308854166667,160.82708398071458L262.5523177083333,173.78926722480705L263.3951822916667,225.7929443269734L264.238046875,211.9044407960301L265.9237760416667,227.87630886242604L269.71666666666664,248.17396867384673L270.13809895833333,280.90117071800194L270.55953125,248.92096828129223L270.9809635416667,235.88259684003526L271.823828125,283.2438255221408L272.24526041666667,282.815052248616L273.5095572916667,262.53650044588323L274.7738541666667,240.94744938260496L277.72388020833336,295.8911858974666L278.14531250000005,266.6710181740187L278.5667447916666,310.05675709357104L278.9881770833333,323.1557686150023L279.8310416666667,288.66402422043706L280.2524739583333,297.95422469236934L280.67390625,277.279587586672L281.51677083333334,305.0041688071064L281.938203125,287.85883613478705L282.35963541666666,246.21112726825075L283.20250000000004,244.56428727327352L284.0453645833333,301.63270175150177L284.466796875,274.69382968559546L286.15252604166665,265.327260064504L289.1025520833333,233.1827474558879L290.3668489583334,259.52860920376753L290.78828124999995,226.13377171537917L291.63114583333333,235.902917986469L292.47401041666666,252.01314687253426L293.7383072916667,274.80106126182113L298.3740625,258.99454868251456L299.638359375,265.1988105348278L300.0597916666667,259.2984774652042L300.4812239583333,301.5401938709038L301.32408854166664,290.71165644574L302.166953125,310.9287496666316L302.5883854166667,299.23339572973936L303.43125,248.25995699223608L305.5384114583333,219.49885714644233L305.95984375,243.489885029095L308.4884375,269.95272078461636L309.33130208333336,285.7814954871103L309.75273437500005,306.85002176753335L310.1741666666666,267.05450405486744L310.5955989583333,286.16645982283677L311.01703125,260.0756456996103L311.4384635416667,263.7029610190517L311.8598958333333,295.60523260847424L312.281328125,269.96464662481765L312.70276041666665,271.13886923430016L313.12419270833334,265.9418319500412L313.96705729166666,280.6369816616663L315.2313541666666,273.39120646979677L315.6527864583333,289.1768146846005L316.07421875,238.86972713761716L316.9170833333334,287.08814096625565L318.6028125,267.0966729704428L319.44567708333335,245.6073059999611L320.2885416666667,236.93926327806705L321.9742708333334,234.26652949945L322.39570312499995,227.3517950541859L322.81713541666664,269.15179484621535L323.66,306.49731868493734L324.50286458333335,271.25463898572224L325.3457291666667,307.8611631316186L326.18859375,291.6729281273164L326.6100260416667,312.11497480432257L327.87432291666664,254.79672560482592L328.7171875,253.36658658749818L329.1386197916667,271.58737930158946L329.5600520833333,255.57608600490727L329.981484375,243.45230384157824L330.40291666666667,249.3076314922046L330.82434895833336,270.53386986495946L331.6672135416667,263.6210132639786L332.0886458333333,287.6695890546548L334.1958072916667,279.11402759741657L334.6172395833333,296.98939663047145L335.46010416666667,306.74476181458823L335.88153645833336,302.90879644481515L336.30296875,307.39364419099593L337.567265625,316.0592491570129L338.4101302083333,322.76527442592464L339.25299479166665,315.01642822591646L340.095859375,301.69162559662504L340.93872395833336,305.63722817195L341.7815885416666,268.74977567515964L342.2030208333333,257.9206719507772L342.624453125,248.60141753746396L343.88875,275.09468780910964L345.57447916666666,274.31004352742036L345.99591145833335,300.4137832153919L346.8387760416666,275.682015663132L347.2602083333333,276.4594771525399L348.1030729166667,298.2698321299435L349.78880208333334,280.8548150354633L351.8959635416667,301.75484886332407L354.84598958333333,272.69247990388106L355.267421875,292.18934239403796L356.11028645833335,256.97359694448284L356.53171875,278.1467237794826L356.9531510416667,288.5420342373839L357.3745833333333,263.82468643183125L357.796015625,278.1126654741178L358.2174479166667,274.29437124843787L359.0603125,261.4875189231756L359.48174479166664,291.1899068004708L361.1674739583333,273.8117931102474L361.58890625,298.1773775758533L362.43177083333336,326.0869675363415L363.2746354166667,310.3839890305719L364.53893229166664,316.2052667280084L365.381796875,275.89166324708475L365.8032291666667,279.90684179488983L366.2246614583333,267.09854095526373L367.48895833333336,266.3039829811325L367.910390625,290.6350683313465L368.3318229166667,264.4783652959711L368.7532552083333,251.41134746237606L369.1746875,292.25398288453687L370.0175520833333,244.5180131094758L370.438984375,238.9130910149809L370.86041666666665,255.5483154721019L371.70328125,236.80357500713808L372.12471354166667,253.4621265273728L372.54614583333336,255.07612200228996L372.96757812500005,252.4393597926283L373.3890104166666,238.55364779611605L373.8104427083333,260.7792485474358L374.6533072916667,268.73783972044316L375.0747395833333,264.5990577562754L376.33903645833334,248.71034822077843L378.02476562500004,255.92690951221624L379.2890625,287.3459772979822L379.7104947916667,265.5957949905956L380.1319270833334,281.68402753634103L380.97479166666665,309.4221577573258L381.39622395833334,290.6592760520243L381.81765625,291.9186957090005L382.23908854166666,298.8060208921972L383.081953125,279.2085723326477L383.5033854166667,297.2239535849151L383.9248177083333,313.30178144910406L385.61054687499995,291.62810701664705L387.29627604166666,261.2036520738256L387.71770833333335,287.1305042325766L388.5605729166667,266.3622132485032L388.9820052083333,257.7813427230006L389.4034375,264.31023463952914L389.8248697916667,261.56466314271785L390.2463020833333,301.7312060923585L390.667734375,299.2016766136281L391.93203125,288.731252377487L392.3534635416667,258.9938490594302L394.8820572916667,226.53262523706672L395.724921875,262.4689067595954L396.14635416666664,278.3538842435929L396.56778645833333,274.38402371225277L396.98921875,293.2835561815617L397.8320833333333,297.8315854990049L399.09638020833336,300.5809065839455L399.5178125,275.2386324873715L400.782109375,261.33566437986394L401.2035416666667,260.53919944328874L401.6249739583333,272.3797760185038L402.46783854166665,270.9327166397566L403.310703125,285.17063280524644L404.57500000000005,291.804490190901L404.9964322916666,288.3310403426103L405.839296875,257.26993997094706L407.10359375,246.1565142212835L407.52502604166665,255.56895100306636L407.94645833333334,240.9625558833814L408.78932291666666,241.10442611790248L409.21075520833335,254.55029639068508L409.63218750000004,300.50606919670724L410.4750520833333,291.12469558457644L410.896484375,306.1591792960041L411.3179166666667,269.05621505135736L413.425078125,286.0445466274619L415.1108072916667,300.2878895634505L415.5322395833333,274.2878241400377L416.3751041666667,284.69898936711485L417.21796874999995,290.8921177559856L418.06083333333333,291.2214327068056L418.482265625,305.0241339120489L418.90369791666666,295.71972865541113L419.32513020833335,290.8570148256845L419.7465625,269.5451753150545L420.1679947916667,300.6539160417193L421.010859375,283.58718235267577L421.8537239583333,274.4791088096039L422.69658854166664,279.16571158253896L423.9608854166667,303.88258606245364L424.80375,274.1026096598653L425.22518229166667,297.9608729568265L425.64661458333336,303.4744887125775L427.33234375,312.5728030598863L428.17520833333333,285.231833227279L428.596640625,260.05618996025595L429.4395052083333,268.99743814429524L430.70380208333336,270.17785627341794L431.5466666666667,274.55622267475974L431.9680989583333,265.60878518804003L432.38953125,280.2744339573759L433.653828125,284.60031626499625L434.918125,287.68116825745653L435.33955729166667,287.7334115461081L436.18242187500005,304.3238909959801L437.0252864583333,313.93992593606356L437.8681510416667,303.72681828636615L439.9753125,293.4874088225684L440.81817708333335,270.6749115038004L441.23960937500004,244.3407418703554L441.6610416666666,268.517340409621L442.0824739583333,280.3278340479254L443.3467708333334,291.69480646335205L445.87536458333335,260.03876935783234L446.7182291666667,264.03317972692446L447.1396614583333,280.08566261003637L447.56109375,252.39160427387023L447.9825260416667,275.814618990434L448.4039583333334,309.25803225639885L450.0896875,298.09301361814533L450.93255208333335,303.7634520506717L451.353984375,285.388976598996L452.61828125,277.5070086364589L453.0397135416667,307.1206817494616L453.4611458333333,325.1598153776663L453.882578125,307.75919175943164L454.30401041666664,281.7179153755001L455.146875,289.03512172137516L455.5683072916667,306.4983058228184L455.9897395833333,295.1301973335399L456.411171875,280.64941446153375L457.25403645833336,301.0720618628876L458.5183333333333,339.6382451678034L459.36119791666664,333.9283000258767L459.78263020833333,283.2595252345235L460.6254947916667,278.0733839601416L461.0469270833333,277.80838918799327L462.31122395833336,276.56497418683597L462.73265625,288.78467394657696L463.5755208333333,328.64653117903725L463.996953125,324.21629105345266L466.94697916666667,295.53040387698195L467.36841145833336,320.26402772149345L467.78984375000005,307.176954477448L468.2112760416666,301.87692120636626L468.6327083333333,311.0582013942706L469.054140625,242.69646428003023L469.4755729166667,253.74499517398874L470.3184375,270.15792586237865L470.73986979166665,271.5074901636945L471.16130208333334,259.1677674751054L472.42559895833335,277.6933840295019L472.84703125000004,289.2892528058627L473.2684635416666,308.03377663515573L473.6898958333333,308.18060011784445L474.5327604166667,303.2709349712278L477.06135416666666,312.33193430956806L477.48278645833335,314.50291548232866L477.90421875,331.2208962139459L478.7470833333333,306.21600639868274L480.43281249999995,280.40264749290975L481.697109375,249.76142119160087L482.96140625,262.06584255239505L484.6471354166667,257.9549734135934L485.91143229166664,265.68754723247037L486.33286458333333,288.9333785793419L486.754296875,284.1841472505934L487.5971614583333,259.64266033089604L488.01859375,260.1065631363445L488.44002604166667,294.7827076758469L489.7043229166667,305.79354651378077L490.1257552083333,296.8693468547254L490.96861979166664,251.4771350687577L491.811484375,287.92990634833774L492.2329166666667,286.2254966616332L493.07578125,298.6624911406126L493.91864583333336,294.00501531764115L494.340078125,261.75071347398114L495.1829427083333,275.80879133660454L496.0258072916667,297.58603990307756L496.4472395833333,282.2710884611354L496.868671875,244.222155794865L497.29010416666665,259.6270595357348L498.55440104166667,288.9116433070087L498.97583333333336,272.29634696943134L499.39726562500005,261.05467416201907L500.6615625,279.25391425304537L501.0829947916667,289.8030970855L504.45445312500004,260.7886670302747L505.71875,266.66037372246444L506.14018229166663,287.2051032327649L506.98304687499996,260.10338150320666L507.82591145833334,251.71860657382274L508.24734374999997,214.77535578160445L509.51164062500004,257.4088270140626L509.9330729166667,268.32058197164827L510.7759375,289.7620704314037L511.19736979166663,305.5290219231997L511.6188020833334,276.07503839466955L512.040234375,299.4260759758988L513.30453125,301.01153093756807L516.6759895833334,299.7605009023575L517.097421875,302.742317842762L517.5188541666668,295.2715585116468L518.3617187499999,304.1344709274192L519.2045833333333,295.12210337647576L519.626015625,276.9764699425691L520.0474479166667,275.83255419318897L520.8903125,244.52700716301152L521.7331770833333,249.91018812285478L522.154609375,290.69391966650187L522.5760416666667,283.1270040506149L523.8403385416667,299.0607174615477L524.2617708333333,274.4148648064914L524.6832031250001,268.4619424563927L526.7903645833334,255.26312426196566L527.6332291666666,277.115856095952L528.0546614583334,284.79779434490337L528.8975260416667,268.50426887048167L529.3189583333333,282.4201262124087L530.1618229166667,284.4582695295371L532.6904166666666,274.2979509537062L533.1118489583333,292.7361034747082L533.9547135416667,329.52639634983444L534.7975781250001,302.4471143273448L536.4833072916666,318.51755658316233L537.326171875,328.6463629694439L538.1690364583334,318.791083337366L539.0119010416668,324.7535835010141L539.8547656249999,334.50534193728345L540.6976302083333,326.14673628351807L541.1190625,331.3840791473624L541.5404947916667,304.9935230732529L541.9619270833334,307.62416915685014L542.383359375,267.8761907268304L544.0690885416667,306.9138183821483L544.911953125,314.12050777318206L545.3333854166667,329.5028659309143L547.8619791666666,279.9784537835038L548.70484375,297.7417302591804L549.5477083333334,319.0719298056021L549.9691406249999,319.0564540795571L550.3905729166667,296.311250095558L552.9191666666667,275.10951379702664L554.1834635416667,283.82536985204985L555.026328125,285.56446566021265L556.2906250000001,278.3245613128095L557.554921875,277.2498524609628L557.9763541666666,292.93149140550565L558.81921875,307.83841740533035L559.2406510416666,325.9391659835967L559.6620833333334,287.97830800122637L560.083515625,291.23089455707844L560.9263802083333,309.20022978802234L561.3478125,330.9695167924149L562.1906770833333,291.20351090077986L562.612109375,323.36886210865435L563.0335416666667,308.2921017545064L564.2978385416666,252.34826181225247L564.7192708333333,261.4601563698917L565.5621354166667,271.72077641475084L568.93359375,295.66118844236996L569.3550260416666,263.6291935701997L569.7764583333334,247.1308992487753L570.197890625,224.99885673286573L571.4621874999999,233.5825483286768L571.8836197916667,226.3877021429241L572.3050520833333,226.29912832853339L573.5693489583334,206.93163232226786L573.99078125,239.92246422103807L574.4122135416666,280.61976164207584L575.6765104166667,274.2789734566421L580.7336979166668,254.0522401285032L581.9979947916667,258.46978078661186L582.840859375,239.13666413982736L583.2622916666667,282.30342556956094L584.10515625,267.3032654505996L584.5265885416667,283.7379789845033L585.7908854166667,268.7714721975257L587.0551822916667,266.1261691832394L587.4766145833333,311.4256954223226L587.8980468750001,326.8404700827121L588.3194791666666,279.0621956920868L588.7409114583332,310.09237863902393L589.16234375,278.8387392180213L589.5837760416666,282.998876073317L590.0052083333334,324.20031253266376L590.8480729166666,332.4225027706308L591.6909375,236.24551544530357L592.1123697916667,234.87485629816086L592.955234375,219.59453103972348L593.7980989583333,238.45799845476668L594.6409635416667,278.47365063175727L595.0623958333334,246.03086947315697L595.483828125,278.6603656863L595.9052604166666,284.8915069361093L596.3266927083333,271.92793323156604L596.748125,306.2029555307602L598.4338541666667,300.3649010035791L600.541015625,313.91279626396357L600.9624479166666,280.1548516780559L601.8053125,306.8115010332651L602.2267447916668,314.3330831994234L603.9124739583333,314.30536236913053L604.33390625,278.3932730800307L604.7553385416667,296.630448897796L605.598203125,306.8864416070153L606.8625,297.3189503860893L608.126796875,322.7202376724071L608.9696614583333,302.3765911645828L609.8125260416666,305.25262598649823L610.2339583333334,248.75592274672823L611.0768229166666,267.6701986504021L611.4982552083334,262.7065415263958L612.7625520833334,279.915560593387L613.1839843749999,254.3747874015983L613.6054166666667,248.9809858006222L614.44828125,247.63288393032445L614.8697135416667,248.60198438015723L615.2911458333333,263.1038093478311L616.1340104166667,260.45530631805434L616.5554427083333,280.57907557486476L616.976875,283.3053915182689L617.3983072916667,291.17627078373863L617.8197395833333,276.0491785835668L618.241171875,273.98673628226254L620.3483333333332,295.3295206878569L620.769765625,275.9608940779228L621.6126302083334,309.9892754640283L623.298359375,326.67037385288154L623.7197916666667,308.25349948555197L624.56265625,303.02704641802427L626.2483854166667,286.65314779960437L627.09125,283.67504827482827L627.9341145833333,275.95583750057875L628.7769791666667,300.33403922931217L629.1984114583333,294.7203459583009L629.6198437500001,273.509266038607L630.0412760416667,251.07356928579236L630.884140625,284.62061188825635L632.1484375,287.76218663843343L632.5698697916666,301.8765720981537L633.412734375,294.62820124708026L633.8341666666668,282.47582638047913L634.2555989583333,287.46416701346305L635.0984635416667,266.46855225114496L636.7841927083334,273.4713955703949L637.6270572916666,284.0767833170107L638.0484895833333,300.75044733942417L638.8913541666667,279.67043930421124L639.3127864583333,265.4274363883129L640.5770833333333,258.67647439181883L640.998515625,295.98450159858385L643.1056770833334,266.37821848556496L643.527109375,287.8420778024765L643.9485416666668,296.66546532827715L644.3699739583334,289.5044289111183L645.2128385416667,304.6684396764422L646.055703125,293.00148019066825L646.4771354166667,297.51212409326916L646.8985677083333,300.9219011390908L647.32,277.487706259372L647.7414322916667,263.55130887821906L648.1628645833333,231.3517062923381L649.4271614583333,289.3436713904117L650.6914583333333,291.15341178450166L651.5343229166666,265.0284023648226L652.3771875,301.21718073481657L652.7986197916666,329.58847071684005L653.2200520833334,280.74467253791585L653.641484375,246.4797038879432L654.0629166666666,236.38373682378364L655.7486458333333,240.18005813049461L657.434375,262.73970191477713L658.2772395833334,273.7792251846464L658.698671875,309.9559849757051L659.96296875,312.9808606116167L660.3844010416667,263.22711047512774L660.8058333333333,258.000545979104L662.0701302083332,301.4453408721456L663.3344270833334,307.2653216205062L663.755859375,272.64819494577375L664.1772916666666,289.85835041816307L665.02015625,309.3266952196343L665.4415885416668,308.23658173770536L665.8630208333333,306.4298836902893L667.1273177083333,274.77880987488595L667.9701822916667,296.43937446320746L668.3916145833334,275.1187957967667L668.813046875,269.74323068465213L669.2344791666666,278.4905541722303L669.6559114583333,243.27181143137426L670.07734375,266.5221822468132L670.9202083333333,282.1843017119117L671.341640625,279.4661254194149L672.6059375,282.34008605851676L674.7130989583334,280.50605251270235L679.7702864583333,277.9996799051095L680.19171875,255.82911290310463L680.6131510416667,273.7696340522791L681.0345833333333,283.659926615653L682.7203125000001,267.218168241612L683.984609375,292.98128553532797L684.4060416666666,294.29646861733937L685.24890625,283.84688708360824L685.6703385416666,300.00435577934485L686.0917708333334,293.9121050119066L686.513203125,281.1969065077899L687.3560677083333,293.1024043789849L688.1989322916667,285.8054205184652L688.6203645833333,300.71540575854823L689.041796875,331.1141542346581L689.8846614583334,342.6174511019504L690.30609375,303.47560155614906L690.7275260416666,288.93807500072467L691.570390625,305.20499442233864L692.4132552083333,296.24622462585774L694.9418489583334,302.8083509031645L695.7847135416666,246.51316111096673L697.8918749999999,254.71701708851947L698.3133072916667,261.63422181524714L699.9990364583334,261.9565731928487L702.1061979166667,253.1314325902969L702.5276302083333,254.96358462152872L704.213359375,262.140618946686L705.8990885416666,245.20762615460893L707.1633854166668,256.61909461387575L708.4276822916667,295.49947495680203L708.8491145833333,294.75677042986973L709.270546875,273.45286188925263L710.53484375,285.82127357432876L710.9562760416667,288.8207065477548L712.2205729166667,263.53663833625586L713.0634375,257.00015601395717L713.4848697916667,298.6337256166089L713.9063020833333,285.1030115974926L716.856328125,271.40312851161985L717.2777604166666,272.9644740914113L717.6991927083334,312.60207168561396L718.120625,304.13454096762314L718.9634895833333,273.5863653946133L719.384921875,256.15889473725633L719.8063541666667,241.2422181789898L720.2277864583333,244.01044371011122L720.64921875,259.16833108566885L721.0706510416667,252.9230939819576L721.4920833333334,273.5810724368854L721.913515625,302.105578104923L722.3349479166666,285.5588267486909L723.5992447916667,281.30650873299817L724.4421093750001,269.4547508066545L726.5492708333334,306.34737108780837L726.970703125,313.00588095168604L727.3921354166666,283.632243715275L728.235,325.14876828345575L731.1850260416667,320.930497964075L732.027890625,279.3474596446526L734.1350520833333,291.82580206229915L734.556484375,295.78720517218886L736.2422135416666,302.77504625144735L737.085078125,284.52380490833406L737.5065104166666,283.6571041350927L738.349375,269.2356245335493L738.7708072916668,273.7400279200672L739.6136718749999,212.52839398787674L740.0351041666667,265.9514437911618L742.5636979166667,252.6415468188086L742.9851302083333,308.08018764646596L743.4065625,315.6571874983614L745.5137239583333,312.2639809350673L745.9351562500001,323.559992376331L749.728046875,308.5538398060713L750.1494791666667,299.54353681075327L751.4137760416667,267.8184383218883L751.8352083333333,265.56942936280427L752.256640625,259.80422243574685L753.0995052083334,276.64187997837524L753.9423697916666,267.06194873673184L754.785234375,285.7365981023856L756.0495312500001,256.77082749427774L756.4709635416667,268.3758359736819L757.313828125,284.6195535863742L757.7352604166666,309.3216502259025L758.578125,292.28300452966585L759.4209895833334,313.78883998569637L759.842421875,317.32446141825193L760.6852864583333,324.8579978002937L761.1067187499999,327.8339158712789L762.7924479166667,328.6450563654018L763.2138802083334,323.27093711073144L764.0567447916666,306.8525717279477L764.4781770833333,293.15643320739576L764.899609375,255.90342499172874L765.3210416666667,298.86946159217473L766.16390625,301.9744457844387L766.5853385416667,265.9885747379158L767.0067708333333,281.69103098653983L767.428203125,271.0362679313879L769.1139322916666,284.22023251163523L769.956796875,290.8338975631979L770.3782291666668,287.31713264726324L770.7996614583334,253.9332224090129L771.6425260416667,264.2634981157586L772.485390625,292.9807424037976L773.3282552083333,324.9561875144899L774.1711197916667,296.575075166241L774.5925520833333,286.9052147912542L775.013984375,265.20771729434887L775.8568489583333,279.13451574601606L776.27828125,297.52510288637274L776.6997135416667,307.00674241220463L777.1211458333333,307.3066028203696L777.5425781250001,279.56385558853657L777.9640104166666,297.73183255863916L778.806875,293.6080215197501L779.2283072916666,310.5567561334721L780.4926041666666,297.9907375012316L780.9140364583334,294.4543312503914L781.7569010416667,317.6005027256157L782.1783333333333,285.25482298834925L783.4426302083333,247.59688818794766L783.8640625,279.37784407342843L784.2854947916667,261.0472746771232L784.7069270833334,305.20854643672635L785.128359375,292.65621950441556L785.9712239583333,284.7051059272062L787.6569531250001,313.4576911952465L788.4998177083332,304.1742849471657L788.92125,307.60492572454876L789.3426822916666,315.1548211385239L790.6069791666666,300.9531932823185L791.0284114583334,275.4559523302377L791.8712760416668,241.9907526356813L793.5570052083333,265.86192686323017L793.9784375,300.55042388616215L794.3998697916667,277.77693787628004L794.8213020833334,274.58842415460106L795.6641666666666,256.682270644528L797.3498958333333,283.02448639510743L797.771328125,266.0472249528753L798.6141927083333,285.8110405383434L799.035625,295.6976986805686L799.4570572916666,265.7144523509396L799.8784895833334,279.80747986126266L800.7213541666666,280.9364979549215L801.9856510416668,273.7683709896651L802.4070833333334,266.1707366356149L802.8285156249999,249.4693933622046L803.2499479166667,255.96056183883894L803.6713802083333,301.95746605554166L804.9356770833333,295.5322316968643L805.357109375,293.37195008302945L807.0428385416667,284.17286746485166L807.4642708333333,286.62283557193024L808.3071354166667,292.25478612438104L808.7285677083333,306.71224519643346L809.1500000000001,326.6864730870051L810.8357291666666,335.23628999390803L812.1000260416666,309.9545741971251L812.942890625,280.5333390028162L814.2071875,285.12396317401164L814.6286197916667,283.6974923896178L815.0500520833333,306.11781002803946L815.471484375,254.14212133057828L815.8929166666667,279.6755857984962L816.73578125,304.2218674705205L817.1572135416666,303.4022950210307L817.5786458333333,319.65227898295194L818.8429427083333,325.3321109844706L819.2643750000001,325.0691556169004L820.1072395833332,309.96444478234116L820.528671875,312.28009895444194L820.9501041666666,333.85088232599526L822.2144010416666,326.9733642836316L823.057265625,305.3946444888852L823.4786979166668,313.43750804198766L823.9001302083333,271.0114700355774L824.3215624999999,252.22400708746784L827.2715885416666,282.963149548747L827.6930208333333,269.2318783661128L828.9573177083333,258.9531927303712L831.0644791666666,237.298482535721L832.7502083333334,260.3931150029745L833.5930729166668,300.72406047924244L834.4359374999999,312.93297717113956L835.2788020833333,297.20333111965454L835.700234375,293.5949975663782L836.1216666666667,291.50763706716725L836.5430989583333,308.8015053902569L838.228828125,323.195892101596L838.6502604166667,312.81777510474996L839.0716927083333,320.63355152665105L839.9145572916667,296.7962348671269L840.3359895833333,272.8531776713239L840.7574218750001,290.64085747415595L842.4431510416666,318.44454945361144L843.286015625,321.94560435024874L844.1288802083334,288.69948117433114L844.9717447916667,309.32812296316564L845.3931770833333,327.53239517390057L846.2360416666667,321.9516828145013L847.9217708333334,304.8976330967005L848.7646354166666,312.85785504116814L849.1860677083333,314.84070916931347L850.4503645833333,276.93721868438496L851.7146614583332,309.8055550049323L853.400390625,291.31958817187416L854.2432552083334,304.3906921947606L854.6646875,294.9470112194053L855.9289843749999,292.6540119782083L857.6147135416667,295.7706748830936L858.0361458333334,286.4114789650768L858.457578125,262.7503895042563L858.8790104166666,255.2598665972817L860.1433072916667,269.03645347345145L860.5647395833333,280.9227155083381L860.986171875,288.23961339199326L861.8290364583333,279.91223246801826L862.25046875,310.400651512239L862.6719010416666,319.6317576063502L863.514765625,317.19874650263426L863.9361979166666,290.4809616394922L865.2004947916668,282.29979341753824L865.6219270833334,262.83985333823927L866.4647916666667,260.9253503366669L867.30765625,244.55173027620867L867.7290885416667,274.3609728528099L868.1505208333333,289.5248068426538L871.100546875,315.06004867481124L871.5219791666667,314.3743862878894L871.9434114583333,317.862827409271L872.3648437500001,330.5987736874602L874.8934375,341.7614296306771L875.3148697916666,297.4590025601548L875.7363020833334,321.45664109865726L876.157734375,304.25250806723636L876.5791666666667,301.49442950409747L877.42203125,278.38285017258517L878.686328125,278.5836866976283L879.950625,227.5123759119587L881.6363541666667,298.1729613203466L882.0577864583333,283.54539920838636L882.4792187500001,252.8749848588093L882.9006510416667,254.1143548982279L883.3220833333332,260.058034640368L884.1649479166666,290.70752106218504L884.5863802083334,311.32402424479903L886.272109375,336.28830499661524L887.5364062499999,317.04938749002946L887.9578385416667,317.8689450580198L889.2221354166667,268.95932231893056L889.6435677083334,273.3588450477846L890.065,316.7059649145401L890.4864322916666,352.8032444506365L890.9078645833333,340.05886570682327L891.7507291666667,309.07949145146995L892.1721614583333,258.65711070933554L892.59359375,281.2900443663514L893.0150260416667,320.9720114000165L893.4364583333333,265.7697122954508L895.1221875,270.7717894167941L895.5436197916666,281.3984081259116L895.9650520833334,309.13454637790187L897.2293489583334,250.4254077545671L898.0722135416667,280.0305859039016L898.4936458333333,253.74468635789614L898.915078125,275.93788839012285L899.7579427083333,316.38578523375526L900.179375,294.3633254571765L900.6008072916667,312.173484342867L901.443671875,281.8111942396008L901.8651041666667,292.21889562387594L903.1294010416667,281.75308856090834L903.9722656250001,263.8830777688083L904.8151302083332,266.6276026762148L905.2365625,298.7325732560263L906.0794270833334,304.13727065365674L907.3437239583334,279.4550387011438L908.1865885416667,286.0003436957347L908.6080208333333,278.57859781709595L909.029453125,255.68521869841254L909.8723177083333,256.797306591913L910.7151822916667,229.1854066962536L911.1366145833334,255.71078967141327L911.558046875,266.71298069939684L913.2437760416667,283.32674190512694L913.6652083333333,303.5993978010301L914.5080729166667,320.2278294989808L915.3509375,338.3823272802041L917.4580989583334,286.0385238048663L919.1438281249999,285.9991227458257L919.5652604166667,263.1507983117173L919.9866927083333,239.62693165129974L920.408125,242.8080932309091L925.4653125,270.86744438865935L926.3081770833334,254.4693373768412L927.1510416666666,255.69492979155612" style="fill: none;" fill="none"></path></g></g></g></g><g opacity="0.2"><g><g><g><path stroke="rgb(0, 119, 187)" stroke-width="2px" d="M86.81505208333333,84.46430028809442L87.23648437499999,13.338446961508893L88.92221354166666,11.257337278789967L89.34364583333333,98.95731470319963L90.18651041666668,55.687151432037396L90.60794270833334,41.871061934365216L91.029375,-24.893579271104528L91.87223958333334,120.30332003699412L92.293671875,72.16519973013139L92.71510416666666,-14.7307171291775L93.13653645833334,21.60575954119366L94.822265625,62.82028020752806L98.61515625,133.2353523837196L99.03658854166666,156.75659571753607L99.879453125,167.45181965827942L101.14375000000001,199.21176256073846L101.56518229166667,124.94656756189136L102.40804687500001,129.41019728448657L103.25091145833333,207.31074274910821L103.67234375,208.04129833645288L104.51520833333333,128.41997737354706L105.35807291666667,159.29781060748633L105.77950520833333,168.52952647209167L107.04380208333333,244.46835790740118L107.465234375,309.14522304799823L107.88666666666667,242.9116203520033L108.30809895833333,102.5045790407393L108.72953125,167.54944345686175L109.993828125,148.3154578473833L110.41526041666665,224.59764541520013L111.258125,240.88763682047522L112.10098958333334,191.6780016952091L112.522421875,247.9383721086714L112.94385416666667,233.03663606113855L113.36528645833333,268.7516411277983L114.62958333333333,240.39567279815674L115.051015625,213.069348414739L115.47244791666667,237.55714225769043L115.89388020833333,118.70124109586082L116.73674479166667,159.88874668545196L118.00104166666667,208.86423450046118L120.10820312499999,282.72427825133L120.52963541666666,128.70650696754456L120.95106770833333,136.45668805970087L121.3725,163.209503836102L121.79393229166668,147.48063704702594L122.21536458333334,174.2711540857951L124.32252604166666,224.8276980188158L127.693984375,137.06270464261377L128.95828125,239.60095016161597L129.3797135416667,219.93502293692694L132.32973958333332,250.0109428299798L133.59403645833333,272.6734962198469L134.43690104166666,261.149468700091L134.85833333333332,253.39666599697534L135.279765625,154.41407397058276L136.96549479166666,355.695171435674L137.38692708333335,275.01644241809845L137.808359375,272.1998335387972L139.07265625000002,336.6306667327881L139.49408854166666,230.95317941241797L140.75838541666667,126.72841411166723L142.44411458333335,129.35087397363452L143.28697916666667,224.23276710510254L144.12984375,263.5546844005585L144.55127604166665,282.1932647095786L144.97270833333334,324.31201644738513L145.39414062499998,145.92020426856146L147.07986979166665,259.05442702770233L147.922734375,311.2434356212616L149.18703125,216.79263520240784L149.60846354166668,295.79300888379413L150.02989583333334,234.41001065572107L150.87276041666667,271.05783483717175L151.29419270833336,273.03710117605L151.715625,221.7441342406803L152.979921875,324.9153614838918L153.82278645833333,283.3467485639784L154.24421875,51.68607375356889L155.0870833333333,307.35845785670807L155.508515625,200.32722057236566L156.7728125,253.89944104353583L158.87997395833332,220.57414672109815L159.30140625,262.00206651952533L159.72283854166668,264.97277618779077L160.565703125,141.42906011475458L160.9871354166667,253.98063608010614L161.83,169.5634898344676L162.67286458333334,175.12639848391217L163.094296875,236.3030135101742L163.51572916666666,189.6805338859558L163.93716145833332,224.75059768888684L164.78002604166664,224.03227628601923L165.20145833333333,243.04330012533399L168.151484375,315.7261656522751L169.83721354166667,177.05096054077148L171.52294270833335,176.9147366417779L171.944375,214.5336055225796L172.36580729166667,199.2210006184048L174.05153645833335,306.51300080617267L175.31583333333333,363.01937819851764L176.58013020833334,282.8348353306452L177.00156249999998,208.16538792186316L178.265859375,274.73116121027203L178.68729166666665,212.32775709364148L179.53015625,231.72318400277032L179.95158854166667,279.7665767669678L180.37302083333336,359.6208465894063L181.21588541666668,218.56769053141278L181.63731770833334,239.7531534036001L182.48018229166667,279.181483136283L182.90161458333336,234.10066056251526L183.323046875,268.40878434975946L184.58734375,287.1924021641413L185.851640625,316.9906060695648L187.95880208333332,223.81920173433093L188.80166666666668,203.9144832028283L189.64453125,227.26724433898926L190.0659635416667,226.6032027668423L192.173125,269.3234269618988L193.437421875,278.0384108225504L193.85885416666667,196.02323447333447L194.28028645833334,229.7660140991211L194.70171875,291.21085737811194L195.54458333333332,266.1100559896893L197.2303125,190.31840928395593L198.07317708333332,218.33229483498468L198.91604166666664,303.2310434977213L199.75890625,209.4775416586134L201.86606770833333,295.57626407676275L202.70893229166666,276.95301394992407L204.39466145833333,255.64039046234552L206.50182291666667,337.1614555650287L207.3446875,260.63623217741645L207.76611979166665,207.19479264153375L209.03041666666667,276.65901900662317L209.87328125,229.65221121576099L210.29471354166665,287.8128001557456L210.71614583333334,285.26434462600287L211.55901041666667,252.43842973974017L211.98044270833336,220.46319015820825L212.401875,167.12394351429413L214.08760416666667,298.60057944721643L214.50903645833336,184.8645097149743L215.35190104166668,281.5074512826072L216.61619791666666,289.15778644879657L218.3019270833333,315.6703627904256L218.723359375,314.8951649136013L219.14479166666666,294.8128759331173L219.56622395833332,276.70795574453143L220.40908854166668,251.49372598859998L221.6733854166667,231.47645295990839L222.09481770833332,269.6317034429974L222.51625,358.1172653171751L223.780546875,221.9607042736477L224.2019791666667,217.17214459843103L225.04484375,325.69143323103583L227.5734375,237.91023580233252L228.41630208333333,247.1317149003347L229.68059895833332,310.0019155740738L230.10203125,243.84611230426367L230.94489583333333,248.6897008419037L231.366328125,367.1396018531587L233.47348958333333,286.44494342803955L233.89492187500002,254.70617315504285L234.73778645833335,307.2539679341846L235.58065104166667,268.4883564843072L236.00208333333333,247.5770392152998L236.42351562500002,314.4448720216751L237.68781249999998,298.08409712049695L238.10924479166667,286.3288435141245L239.37354166666665,234.06765323215063L239.79497395833334,228.90382867389258L240.63783854166667,213.02725283304852L241.05927083333333,290.3337412542767L241.90213541666665,308.32413449552325L243.58786458333336,171.27078276210364L244.009296875,269.5866866376665L244.43072916666668,253.00517209370935L245.27359375,315.8888054026498L245.69502604166667,303.7014603747262L246.95932291666668,242.7268591986762L247.38075520833334,330.6537432935503L247.8021875,224.01969255341425L248.22361979166666,219.4276787969801L249.066484375,286.27678581078845L249.48791666666668,296.295034898652L249.9093489583333,281.0426771110958L250.33078125,228.27609017160205L254.12367187499999,201.8122008906471L254.54510416666665,309.85862580935157L255.38796875,142.8479758368598L256.652265625,258.99575287765924L259.60229166666664,200.60176565912036L260.02372395833333,207.49520428975427L261.709453125,196.87358519766065L262.1308854166667,90.29251596662736L262.5523177083333,193.2325420909458L263.3951822916667,303.7984599802229L264.238046875,191.0716854996151L265.9237760416667,251.83411096202002L269.71666666666664,278.62045839097766L270.13809895833333,329.9919737842348L270.55953125,200.95066462622754L270.9809635416667,216.32503967814978L271.823828125,354.2856685452991L272.24526041666667,282.1718923383289L273.5095572916667,232.118672741784L274.7738541666667,208.5638727876875L277.72388020833336,378.30679066975904L278.14531250000005,222.84076658884686L278.5667447916666,375.13536547289954L278.9881770833333,342.804285897149L279.8310416666667,236.92640762858923L280.2524739583333,311.8895254002677L280.67390625,246.26763192812598L281.51677083333334,346.59104063775806L281.938203125,262.14083712630804L282.35963541666666,183.73956396844653L283.20250000000004,242.0940272808075L284.0453645833333,387.23532346884406L284.466796875,234.28552158673608L286.15252604166665,251.27740563286676L289.1025520833333,184.96597854296368L290.3668489583334,299.0474018255869L290.78828124999995,176.04151548279657L291.63114583333333,250.5566373931037L292.47401041666666,276.17849020163214L293.7383072916667,308.9829328457514L298.3740625,235.28477981355456L299.638359375,274.50520331329767L300.0597916666667,250.44797786076867L300.4812239583333,364.9027684794532L301.32408854166664,274.46885030799444L302.166953125,341.2543894979689L302.5883854166667,281.690364824401L303.43125,171.79979888598126L305.5384114583333,176.3572073777517L305.95984375,279.476426853074L308.4884375,309.6469744178984L309.33130208333336,309.52465754085114L309.75273437500005,338.45281118816797L310.1741666666666,207.36122748586865L310.5955989583333,314.8343934747908L311.01703125,220.9394245147705L311.4384635416667,269.14393399821387L311.8598958333333,343.45863999260797L312.281328125,231.50376764933264L312.70276041666665,272.90020314852393L313.12419270833334,258.14627602365283L313.96705729166666,302.67970622910394L315.2313541666666,262.52254368199243L315.6527864583333,312.8552270068063L316.07421875,163.4090958171421L316.9170833333334,359.41576170921326L318.6028125,237.10947097672357L319.44567708333335,213.37325554423865L320.2885416666667,223.93719919522607L321.9742708333334,230.2574288315243L322.39570312499995,216.9796933862898L322.81713541666664,331.85179453425934L323.66,362.51560444302027L324.50286458333335,218.39061943689984L325.3457291666667,362.770949350463L326.18859375,267.39057562086316L326.6100260416667,342.77804481983185L327.87432291666664,168.819351805581L328.7171875,251.22137806150647L329.1386197916667,298.91856837272644L329.5600520833333,231.55914605988397L329.981484375,225.26663059658472L330.40291666666667,258.09062296814386L330.82434895833336,302.37322742409174L331.6672135416667,253.25172836250727L332.0886458333333,323.74245274066925L334.1958072916667,266.2806854115592L334.6172395833333,323.8024501800537L335.46010416666667,321.3778095907635L335.88153645833336,297.1548483901554L336.30296875,314.1209158102671L337.567265625,329.0576566060384L338.4101302083333,332.8243123292923L339.25299479166665,303.3931589259042L340.095859375,281.7044216526879L340.93872395833336,311.5556320349375L341.7815885416666,213.418596929974L342.2030208333333,241.67701636420355L342.624453125,234.62253591749402L343.88875,314.8345932165781L345.57447916666666,273.1330771048864L345.99591145833335,339.5693927473492L346.8387760416666,238.5843643347422L347.2602083333333,277.6256693866518L348.1030729166667,330.98536459604895L349.78880208333334,254.73228939374292L351.8959635416667,333.10489960511524L354.84598958333333,229.09892646471656L355.267421875,321.4346361292733L356.11028645833335,204.14997877015008L356.53171875,309.9064140319824L356.9531510416667,304.13499992423584L357.3745833333333,226.74866472350226L357.796015625,299.54463403754767L358.2174479166667,268.56692990991803L359.0603125,242.27724043528235L359.48174479166664,335.7434886164135L361.1674739583333,247.74462257491217L361.58890625,334.72575427426233L362.43177083333336,367.95135247707367L363.2746354166667,286.82952127191754L364.53893229166664,324.93718327416315L365.381796875,215.42125802569922L365.8032291666667,285.9296096165975L366.2246614583333,247.88608969582452L367.48895833333336,265.1121460199356L367.910390625,327.13169635666736L368.3318229166667,225.24331074290808L368.7532552083333,231.81082071198358L369.1746875,353.51793601777814L370.0175520833333,172.91405844688416L370.438984375,230.50570787323846L370.86041666666665,280.5011521577835L371.70328125,208.68646430969238L372.12471354166667,278.44995380772485L372.54614583333336,257.49711521466577L372.96757812500005,248.48421647813586L373.3890104166666,217.72507980134753L373.8104427083333,294.1176496744156L374.6533072916667,280.67572647995416L375.0747395833333,258.39088481002386L376.33903645833334,224.87728391753302L378.02476562500004,266.75175144937305L379.2890625,334.47457897663116L379.7104947916667,232.97052152951562L380.1319270833334,305.8163763549593L380.97479166666665,351.02935308880274L381.39622395833334,262.51495349407196L381.81765625,293.8078251944648L382.23908854166666,309.1370086669922L383.081953125,249.81239949332343L383.5033854166667,324.24702546331616L383.9248177083333,337.4185232453876L385.61054687499995,259.1175953679615L387.29627604166666,215.56696965959338L387.71770833333335,326.0207824707031L388.5605729166667,235.20977677239313L388.9820052083333,244.91003693474664L389.4034375,274.1035725143221L389.8248697916667,257.4463058975008L390.2463020833333,361.9810205168194L390.667734375,295.4073823955324L391.93203125,273.0256160232756L392.3534635416667,214.3877440823449L394.8820572916667,177.84078950352142L395.724921875,316.37332904338837L396.14635416666664,302.18135046958923L396.56778645833333,268.42923291524255L396.98921875,321.63285488552515L397.8320833333333,304.6536294751697L399.09638020833336,304.70488821135626L399.5178125,237.22522134251062L400.782109375,240.48121221860254L401.2035416666667,259.34450203842584L401.6249739583333,290.1406408813265L402.46783854166665,268.7621275716358L403.310703125,306.5275070534812L404.57500000000005,301.7552762693829L404.9964322916666,283.1208655701743L405.839296875,210.67828941345215L407.10359375,229.4863755967882L407.52502604166665,269.6876061757406L407.94645833333334,219.052963203854L408.78932291666666,241.3172314696842L409.21075520833335,274.71910179985895L409.63218750000004,369.4397284057405L410.4750520833333,277.0526351663801L410.896484375,328.71090486314563L411.3179166666667,213.4017686843872L413.425078125,311.52704399161865L415.1108072916667,321.6529039674335L415.5322395833333,235.28772600491845L416.3751041666667,300.3157372077306L417.21796874999995,300.18181033929187L418.06083333333333,291.71540513303546L418.482265625,325.7281857199139L418.90369791666666,281.7631207704544L419.32513020833335,283.56294408109454L419.7465625,237.57741604910956L420.1679947916667,347.3170271317164L421.010859375,257.9870818191105L421.8537239583333,260.81699849499597L422.69658854166664,286.19561574194165L423.9608854166667,340.95789778232574L424.80375,229.4326450559828L425.22518229166667,333.7482679022683L425.64661458333336,311.7449123462041L427.33234375,326.2202745808495L428.17520833333333,244.22037847836816L428.596640625,222.2927250597212L429.4395052083333,282.4093104203542L430.70380208333336,271.94848346710205L431.5466666666667,281.1237722767724L431.9680989583333,252.18762895796033L432.38953125,302.2729071113798L433.653828125,291.0891397264269L434.918125,292.30244624614716L435.33955729166667,287.81177647908527L436.18242187500005,329.2096101707882L437.0252864583333,328.36397834618884L437.8681510416667,288.40715681182013L439.9753125,278.1282946268717L440.81817708333335,236.45616552564832L441.23960937500004,204.8394874201881L441.6610416666666,304.7822382185194L442.0824739583333,298.04357450538214L443.3467708333334,308.7452650864919L445.87536458333335,212.55471369955274L446.7182291666667,270.0247952805625L447.1396614583333,304.1643869347042L447.56109375,210.8505167696211L447.9825260416667,310.9491410652796L448.4039583333334,359.4231521553463L450.0896875,281.3454856607649L450.93255208333335,312.2691096994612L451.353984375,257.8272634214825L452.61828125,265.68405669265326L453.0397135416667,351.54119141896564L453.4611458333333,352.2185158199734L453.882578125,281.65825633207953L454.30401041666664,242.6560007996029L455.146875,300.01093124018774L455.5683072916667,332.6930819749832L455.9897395833333,278.0780345996221L456.411171875,258.9282401535246L457.25403645833336,331.70603296491834L458.5183333333333,397.4875201251772L459.36119791666664,325.3633823129866L459.78263020833333,207.25636304749383L460.6254947916667,270.2941720485687L461.0469270833333,277.41089702977075L462.31122395833336,274.69985168510016L462.73265625,307.1142235861884L463.5755208333333,388.4393170277277L463.996953125,317.57093086507587L466.94697916666667,252.50157311227588L467.36841145833336,357.36446348826087L467.78984375000005,287.5463446113798L468.2112760416666,293.92687129974365L468.6327083333333,324.8301216761271L469.054140625,140.15385860866974L469.4755729166667,270.3177915149265L470.3184375,294.77732189496356L470.73986979166665,273.5318366156684L471.16130208333334,240.65818344222174L472.42559895833335,305.4818088610967L472.84703125000004,306.68305597040387L473.2684635416666,336.1505623790953L473.6898958333333,308.4008353418774L474.5327604166667,295.9064372513029L477.06135416666666,325.9234333170785L477.48278645833335,317.7593872414695L477.90421875,356.29786731137165L478.7470833333333,268.708671675788L480.43281249999995,241.68260913425024L481.697109375,203.79958173963757L482.96140625,280.52247459358637L484.6471354166667,251.78866970539093L485.91143229166664,277.28640796078577L486.33286458333333,323.80212559964923L486.754296875,277.0603002574709L487.5971614583333,222.8304299513499L488.01859375,260.80241734451715L488.44002604166667,346.7969244851006L489.7043229166667,322.3098047706816L490.1257552083333,283.4830473661423L490.96861979166664,183.38881738980615L491.811484375,342.6090632677078L492.2329166666667,283.66888213157654L493.07578125,317.31798285908167L493.91864583333336,287.01880158318414L494.340078125,213.36926070849103L495.1829427083333,296.8959081305398L496.0258072916667,330.25191275278723L496.4472395833333,259.298661298222L496.868671875,187.14875679545935L497.29010416666665,282.7344151470396L498.55440104166667,332.83851896391974L498.97583333333336,247.37340246306525L499.39726562500005,244.19216495090063L500.6615625,306.55277438958484L501.0829947916667,305.6268713341819L504.45445312500004,217.2670219474369L505.71875,275.46793376074896L506.14018229166663,318.0221974982156L506.98304687499996,219.45079890886944L507.82591145833334,239.14144417974683L508.24734374999997,159.36047959327698L509.51164062500004,321.3590338627497L509.9330729166667,284.6882144080268L510.7759375,321.9243031210369L511.19736979166663,329.17944916089374L511.6188020833334,231.89406310187445L512.040234375,334.4526323477427L513.30453125,303.38971338007184L516.6759895833334,297.88395584954156L517.097421875,307.2150432533688L517.5188541666668,284.06541951497394L518.3617187499999,317.42883955107794L519.2045833333333,281.60355205006067L519.626015625,249.75801979170905L520.0474479166667,274.1166805691189L520.8903125,197.5686866177453L521.7331770833333,257.98495956261957L522.154609375,351.86951698197254L522.5760416666667,271.7766306267844L523.8403385416667,322.96128757794696L524.2617708333333,237.4460858239068L524.6832031250001,259.53255893124475L526.7903645833334,235.46489697032507L527.6332291666666,309.89495384693146L528.0546614583334,296.3207017183304L528.8975260416667,244.06398065884912L529.3189583333333,303.2939122252994L530.1618229166667,287.51548450522955L532.6904166666666,259.0574730899599L533.1118489583333,320.3933322562112L533.9547135416667,384.71183566252387L534.7975781250001,261.8281912936105L536.4833072916666,342.6232199668884L537.326171875,343.8395725488663L538.1690364583334,304.00816388924915L539.0119010416668,333.6973337464862L539.8547656249999,349.1329795916875L540.6976302083333,313.60882780287L541.1190625,339.2400934431288L541.5404947916667,265.4076889620887L541.9619270833334,311.57013828224603L542.383359375,208.25422308180066L544.0690885416667,365.470259865125L544.911953125,324.9305418597327L545.3333854166667,352.57640316751264L547.8619791666666,205.69183556238812L548.70484375,324.38664497269525L549.5477083333334,351.0672291252348L549.9691406249999,319.0332404904895L550.3905729166667,262.1934441195594L552.9191666666667,243.3069093492296L554.1834635416667,296.8991539345847L555.026328125,288.17310937245685L556.2906250000001,267.4647047917048L557.554921875,275.6377891831928L557.9763541666666,316.4539498223199L558.81921875,330.19880640506744L559.2406510416666,353.0902888509962L559.6620833333334,231.03702102767096L560.083515625,296.1097743908564L560.9263802083333,336.1542326344384L561.3478125,363.6234472990036L562.1906770833333,231.5545020633274L562.612109375,371.61688892046607L563.0335416666667,285.67696122328437L564.2978385416666,168.43250189887152L564.7192708333333,275.1279982063505L565.5621354166667,287.11170648203955L568.93359375,331.5718064837985L569.3550260416666,215.58120126194422L569.7764583333334,222.38345776663886L570.197890625,191.80079295900134L571.4621874999999,246.45808572239343L571.8836197916667,215.5954328642951L572.3050520833333,226.16626760694714L573.5693489583334,177.88038831286963L573.99078125,289.4087120691935L574.4122135416666,341.66570777363245L575.6765104166667,264.7677911784914L580.7336979166668,223.71214013629492L581.9979947916667,265.0960917737749L582.840859375,210.13698916965063L583.2622916666667,347.0535677141613L584.10515625,244.80302527215747L584.5265885416667,308.3900492853588L585.7908854166667,246.32171201705933L587.0551822916667,262.1582146618101L587.4766145833333,379.37498478094733L587.8980468750001,349.9626320732964L588.3194791666666,207.39478410614862L588.7409114583332,356.63765305942957L589.16234375,231.95828008651733L589.5837760416666,289.2390813562605L590.0052083333334,386.0024672216839L590.8480729166666,344.75578812758124L591.6909375,91.98003445731273L592.1123697916667,232.81886757744684L592.955234375,196.67404315206738L593.7980989583333,266.75319957733154L594.6409635416667,338.49712889724304L595.0623958333334,197.3666977352566L595.483828125,327.60461000601447L595.9052604166666,294.23821881082324L596.3266927083333,252.48257267475128L596.748125,357.6154889795515L598.4338541666667,291.60781921280756L600.541015625,334.23463915454016L600.9624479166666,229.51793479919434L601.8053125,346.796475066079L602.2267447916668,325.61545644866095L603.9124739583333,314.2637811236911L604.33390625,224.52513914638098L604.7553385416667,323.9862126244439L605.598203125,322.2704306708442L606.8625,282.9677135547002L608.126796875,360.82216860188373L608.9696614583333,271.86112140284644L609.8125260416666,309.56667821937134L610.2339583333334,164.01086788707312L611.0768229166666,296.0416125059128L611.4982552083334,255.2610558403863L612.7625520833334,305.7290891938739L613.1839843749999,216.06362761391534L613.6054166666667,240.89028339915808L614.44828125,245.61073112487793L614.8697135416667,250.05563505490625L615.2911458333333,284.8565467993418L616.1340104166667,256.4825517733892L616.5554427083333,310.76472946008045L616.976875,287.394865433375L617.3983072916667,302.98258968194324L617.8197395833333,253.35854028330908L618.241171875,270.89307283030615L620.3483333333332,327.34369729624854L620.769765625,246.9079541630215L621.6126302083334,361.0318475431866L623.298359375,351.69202143616144L623.7197916666667,280.62818793455756L624.56265625,295.1873668167326L626.2483854166667,262.09229987197455L627.09125,279.2078989876641L627.9341145833333,264.3770213392046L628.7769791666667,336.9013418224123L629.1984114583333,286.2998060517841L629.6198437500001,241.6926461590661L630.0412760416667,217.42002415657043L630.884140625,334.94117579195233L632.1484375,292.474548763699L632.5698697916666,323.04815028773413L633.412734375,283.75564497047003L633.8341666666668,264.24726408057745L634.2555989583333,294.9466779629389L635.0984635416667,234.97513010766772L636.7841927083334,283.9756605492698L637.6270572916666,299.98486493693457L638.0484895833333,325.7609433730443L638.8913541666667,248.05042725139197L639.3127864583333,244.06293201446533L640.5770833333333,248.55003139707776L640.998515625,351.9465424087312L643.1056770833334,221.96879381603662L643.527109375,320.0378667778439L643.9485416666668,309.9005466169781L644.3699739583334,278.76287428538L645.2128385416667,327.4144558244281L646.055703125,275.5010409620073L646.4771354166667,304.27808994717066L646.8985677083333,306.036566707823L647.32,242.33641393979394L647.7414322916667,242.64671280648975L648.1628645833333,183.0523024135166L649.4271614583333,376.33161903752216L650.6914583333333,293.86802237563666L651.5343229166666,225.84088823530408L652.3771875,355.5003482898076L652.7986197916666,372.14540568987525L653.2200520833334,207.47897526952954L653.641484375,195.08225091298425L654.0629166666666,221.2397862275442L655.7486458333333,245.8745400905609L657.434375,296.5791675912009L658.2772395833334,290.33851008945044L658.698671875,364.2211246622933L659.96296875,317.51817406548395L660.3844010416667,188.59648527039423L660.8058333333333,250.16069923506842L662.0701302083332,366.61253321170807L663.3344270833334,315.99529274304706L663.755859375,220.72250493367517L664.1772916666666,315.67358362674713L665.02015625,338.52921242184107L665.4415885416668,306.601411514812L665.8630208333333,303.7198366191652L667.1273177083333,227.30219915178088L667.9701822916667,328.9302213456896L668.3916145833334,243.1379277971056L668.813046875,261.67988301648035L669.2344791666666,291.6115394035975L669.6559114583333,190.44369732009045L670.07734375,301.39773846997156L670.9202083333333,305.67748090955945L671.341640625,275.3888609806696L672.6059375,286.65102701716955L674.7130989583334,277.7550021939808L679.7702864583333,274.24012099372015L680.19171875,222.5732624000973L680.6131510416667,300.68041577604083L681.0345833333333,298.4953654607137L682.7203125000001,242.55553068055048L683.984609375,331.6259614759021L684.4060416666666,296.26924324035645L685.24890625,268.17251478301154L685.6703385416666,324.2405588229497L686.0917708333334,284.77372886074915L686.513203125,262.1241087516149L687.3560677083333,310.96065118577746L688.1989322916667,274.85994472768573L688.6203645833333,323.08038361867267L689.041796875,376.7122769488228L689.8846614583334,359.8723964028888L690.30609375,244.76282723744714L690.7275260416666,267.13178516758813L691.570390625,329.6053735547595L692.4132552083333,282.80806993113623L694.9418489583334,312.6515403191248L695.7847135416666,162.07037642267017L697.8918749999999,267.02280105484857L698.3133072916667,272.0100289053387L699.9990364583334,262.44010025925104L702.1061979166667,239.89372168646918L702.5276302083333,257.7118126683765L704.213359375,272.90617043442194L705.8990885416666,219.8081369664934L707.1633854166668,273.73629730277594L708.4276822916667,353.8200454711914L708.8491145833333,293.64271363947125L709.270546875,241.49699907832678L710.53484375,304.3738911019431L710.9562760416667,293.31985600789386L712.2205729166667,225.61053601900738L713.0634375,247.1954325305091L713.4848697916667,361.0840800205866L713.9063020833333,264.806940568818L716.856328125,250.8533038828108L717.2777604166666,275.30649246109857L717.6991927083334,372.05846807691785L718.120625,291.43324489063684L718.9634895833333,227.76410203509863L719.384921875,230.0176887512207L719.8063541666667,218.86720334159003L720.2277864583333,248.16278200679358L720.64921875,281.9051621490055L721.0706510416667,243.55523832639062L721.4920833333334,304.5680401192771L721.913515625,344.89233660697937L722.3349479166666,260.7386997143427L723.5992447916667,274.9280317094591L724.4421093750001,251.67711391713885L726.5492708333334,361.68630150953925L726.970703125,322.9936457475026L727.3921354166666,239.57178786065845L728.235,387.42355513572693L731.1850260416667,314.60309248500397L732.027890625,216.97290216551886L734.1350520833333,310.543315688769L734.556484375,301.7293098370234L736.2422135416666,313.256807870335L737.085078125,257.146942893664L737.5065104166666,282.3570529752308L738.349375,247.60340513123407L738.7708072916668,280.496632999844L739.6136718749999,120.71094308959117L740.0351041666667,346.0860184960895L742.5636979166667,232.67670136027868L742.9851302083333,391.2381488879521L743.4065625,327.0226872762044L745.5137239583333,307.17417109012604L745.9351562500001,340.5040095382266L749.728046875,286.0446109506819L750.1494791666667,286.0280823177761L751.4137760416667,220.23079058859082L751.8352083333333,262.1959159241782L752.256640625,251.1564120451609L753.0995052083334,301.8983662923177L753.9423697916666,252.69205187426672L754.785234375,313.74857215086615L756.0495312500001,213.32217158211603L756.4709635416667,285.783348692788L757.313828125,308.9851300054126L757.7352604166666,346.37479518519507L758.578125,266.7250359853109L759.4209895833334,346.04759316974213L759.842421875,322.62789356708527L760.6852864583333,336.15830237335626L761.1067187499999,332.2977929777569L762.7924479166667,329.861767106586L763.2138802083334,315.20975822872583L764.0567447916666,282.22502365377215L764.4781770833333,272.61222542656793L764.899609375,200.02391266822815L765.3210416666667,363.3185164928436L766.16390625,306.6319220728344L766.5853385416667,212.00976816813153L767.0067708333333,305.2447153594759L767.428203125,255.0541233486599L769.1139322916666,303.9961793820063L769.956796875,300.75439514054193L770.3782291666668,282.0419852733612L770.7996614583334,203.85735705163745L771.6425260416667,279.758911675877L772.485390625,336.0566088358561L773.3282552083333,372.9193551805284L774.1711197916667,254.0034066438675L774.5925520833333,272.40042422877417L775.013984375,232.66147104899085L775.8568489583333,300.024713423517L776.27828125,325.1109835969077L776.6997135416667,321.22920170095233L777.1211458333333,307.7563934326172L777.5425781250001,237.9497347407871L777.9640104166666,324.9837980137931L778.806875,287.42230496141644L779.2283072916666,335.9798580540551L780.4926041666666,279.14170955287085L780.9140364583334,289.1497218741311L781.7569010416667,352.31975993845197L782.1783333333333,236.7363033824497L783.4426302083333,191.1099859873454L783.8640625,327.0492779016495L784.2854947916667,233.55142058266534L784.7069270833334,371.45045407613117L785.128359375,273.8277291059494L785.9712239583333,272.77843556139203L787.6569531250001,356.58656909730695L788.4998177083332,290.24917557504443L788.92125,312.7508868906233L789.3426822916666,326.4796642594867L790.6069791666666,279.65075149801044L791.0284114583334,237.21009090211658L791.8712760416668,191.79295309384668L793.5570052083333,301.6686882045534L793.9784375,352.5831694205602L794.3998697916667,243.61670886145697L794.8213020833334,269.8056535720825L795.6641666666666,229.82304037941827L797.3498958333333,322.53781002097656L797.771328125,240.58133278952704L798.6141927083333,315.4567639165454L799.035625,310.5276858939065L799.4570572916666,220.7395828564962L799.8784895833334,300.94702112674713L800.7213541666666,282.6300250954098L801.9856510416668,263.0161805417803L802.4070833333334,254.77428510453967L802.8285156249999,224.4173784520891L803.2499479166667,265.69731455379065L803.6713802083333,370.9528223805957L804.9356770833333,285.8943801588482L805.357109375,290.1315276622772L807.0428385416667,270.3742435375849L807.4642708333333,290.29778773254816L808.3071354166667,300.7027119530572L808.7285677083333,328.398433804512L809.1500000000001,356.64781492286255L810.8357291666666,348.06101535426245L812.1000260416666,272.0320005019506L812.942890625,236.4014862113529L814.2071875,292.0098994308048L814.6286197916667,281.5577862130271L815.0500520833333,339.748286485672L815.471484375,176.17858828438654L815.8929166666667,317.975782500373L816.73578125,341.04128997855713L817.1572135416666,302.17293634679584L817.5786458333333,344.0272549258338L818.8429427083333,333.8518589867486L819.2643750000001,324.674722565545L820.1072395833332,287.3073785305023L820.528671875,315.7535802125931L820.9501041666666,366.2070573833253L822.2144010416666,316.657087220086L823.057265625,273.0265647967657L823.4786979166668,325.50180337164136L823.9001302083333,207.37241302596203L824.3215624999999,224.0428126653036L827.2715885416666,329.07186324066583L827.6930208333333,248.63497159216138L828.9573177083333,243.5351642767588L831.0644791666666,204.8164172437456L832.7502083333334,295.03506370385486L833.5930729166668,361.22047869364417L834.4359374999999,331.24635220898523L835.2788020833333,273.60886204242706L835.700234375,288.18249723646375L836.1216666666667,288.3765963183509L836.5430989583333,334.7423078748915L838.228828125,344.7874721686045L838.6502604166667,297.25059960948096L839.0716927083333,332.3572161595026L839.9145572916667,261.04025987784064L840.3359895833333,236.9385918776194L840.7574218750001,317.32237717840405L842.4431510416666,360.15008742279474L843.286015625,327.19718669520483L844.1288802083334,238.83029641045465L844.9717447916667,340.2710856464174L845.3931770833333,354.83880349000293L846.2360416666667,313.58061427540247L847.9217708333334,279.31655851999915L848.7646354166666,324.79818795786963L849.1860677083333,317.81499036153156L850.4503645833333,220.08198295699225L851.7146614583332,359.10805948575336L853.400390625,263.590637922287L854.2432552083334,323.99734822909033L854.6646875,280.78148975637225L855.9289843749999,289.2145131164127L857.6147135416667,300.4456692404217L858.0361458333334,272.3726850880517L858.457578125,227.25875531302557L858.8790104166666,244.02408223681982L860.1433072916667,289.7013337877062L860.5647395833333,298.7521085606681L860.986171875,299.2149602174759L861.8290364583333,267.42116108205585L862.25046875,356.13328007857L862.6719010416666,333.47841674751703L863.514765625,313.5492298470603L863.9361979166666,250.40428434477911L865.2004947916668,270.0280410846075L865.6219270833334,233.64994321929083L866.4647916666667,258.0535958343082L867.30765625,219.99130018552148L867.7290885416667,319.07483671771155L868.1505208333333,312.2705578274197L871.100546875,353.36291142304736L871.5219791666667,313.3458927075068L871.9434114583333,323.0954890913433L872.3648437500001,349.70269310474396L874.8934375,358.5054135455025L875.3148697916666,231.0053619543711L875.7363020833334,357.453098906411L876.157734375,278.44630852010516L876.5791666666667,297.3573116593891L877.42203125,243.7154811753167L878.686328125,278.88494148519305L879.950625,150.9054097334544L881.6363541666667,404.1638394329283L882.0577864583333,261.6040560404459L882.4792187500001,206.86936333444385L882.9006510416667,255.9734099573559L883.3220833333332,268.9735542535782L884.1649479166666,336.68175069491065L884.5863802083334,342.24877901872L886.272109375,373.7347261243396L887.5364062499999,288.1910112301508L887.9578385416667,319.09828141000537L889.2221354166667,195.59488821029663L889.6435677083334,279.9581291410658L890.065,381.7266447146733L890.4864322916666,406.949163754781L890.9078645833333,320.94229759110345L891.7507291666667,262.6104300684399L892.1721614583333,183.0235395961338L892.59359375,315.2394448518753L893.0150260416667,380.49496195051404L893.4364583333333,182.96626363860236L895.1221875,278.27490509880914L895.5436197916666,297.3383361895879L895.9650520833334,350.73875375588733L897.2293489583334,162.36169981956482L898.0722135416667,324.4383531279034L898.4936458333333,214.31583703888788L898.915078125,309.227691438463L899.7579427083333,377.0576304992039L900.179375,261.3296357923084L900.6008072916667,338.88872267140283L901.443671875,236.26775908470154L901.8651041666667,307.8304477002886L903.1294010416667,266.05437796645697L903.9722656250001,237.07806158065796L904.8151302083332,270.7443900373247L905.2365625,346.8900291257434L906.0794270833334,312.24431675010254L907.3437239583334,242.4316907723745L908.1865885416667,295.8183011876212L908.6080208333333,267.4459789991379L909.029453125,221.34515002038745L909.8723177083333,258.46543843216364L910.7151822916667,187.76755685276459L911.1366145833334,295.4988641341527L911.558046875,283.216267241372L913.2437760416667,308.24738371372223L913.6652083333333,334.0083816448847L914.5080729166667,345.17047704590686L915.3509375,365.61407395203906L917.4580989583334,207.52281859185962L919.1438281249999,285.9400211572647L919.5652604166667,228.8783116605547L919.9866927083333,204.34113166067334L920.408125,247.57983560032312L925.4653125,312.9564711252848L926.3081770833334,229.8721768591139L927.1510416666666,257.5333184136285" style="fill: none;" fill="none"></path></g></g></g></g></g><g><g opacity="0.00575943"><span fill="rgb(0, 0, 0)" stroke="none" stroke-width="1px">Alt + Scroll to Zoom</span></g></g></g><g transform="translate(51, 377)" clip-path="url(#clip_1)"><clipPath id="clip_1"><rect width="1011" height="23"></rect></clipPath><g><g><line x1="0" y1="0" x2="0" y2="5" style="visibility: inherit;" fill="rgb(0, 0, 0)" stroke="rgb(204, 204, 204)" stroke-width="1px"></line><line x1="84.28645833333333" y1="0" x2="84.28645833333333" y2="5" style="visibility: inherit;" fill="rgb(0, 0, 0)" stroke="rgb(204, 204, 204)" stroke-width="1px"></line><line x1="168.57291666666666" y1="0" x2="168.57291666666666" y2="5" style="visibility: inherit;" fill="rgb(0, 0, 0)" stroke="rgb(204, 204, 204)" stroke-width="1px"></line><line x1="252.859375" y1="0" x2="252.859375" y2="5" style="visibility: inherit;" fill="rgb(0, 0, 0)" stroke="rgb(204, 204, 204)" stroke-width="1px"></line><line x1="337.1458333333333" y1="0" x2="337.1458333333333" y2="5" style="visibility: inherit;" fill="rgb(0, 0, 0)" stroke="rgb(204, 204, 204)" stroke-width="1px"></line><line x1="421.4322916666667" y1="0" x2="421.4322916666667" y2="5" style="visibility: inherit;" fill="rgb(0, 0, 0)" stroke="rgb(204, 204, 204)" stroke-width="1px"></line><line x1="505.71875" y1="0" x2="505.71875" y2="5" style="visibility: inherit;" fill="rgb(0, 0, 0)" stroke="rgb(204, 204, 204)" stroke-width="1px"></line><line x1="590.0052083333334" y1="0" x2="590.0052083333334" y2="5" style="visibility: inherit;" fill="rgb(0, 0, 0)" stroke="rgb(204, 204, 204)" stroke-width="1px"></line><line x1="674.2916666666666" y1="0" x2="674.2916666666666" y2="5" style="visibility: inherit;" fill="rgb(0, 0, 0)" stroke="rgb(204, 204, 204)" stroke-width="1px"></line><line x1="758.578125" y1="0" x2="758.578125" y2="5" style="visibility: inherit;" fill="rgb(0, 0, 0)" stroke="rgb(204, 204, 204)" stroke-width="1px"></line><line x1="842.8645833333334" y1="0" x2="842.8645833333334" y2="5" style="visibility: inherit;" fill="rgb(0, 0, 0)" stroke="rgb(204, 204, 204)" stroke-width="1px"></line><line x1="927.1510416666666" y1="0" x2="927.1510416666666" y2="5" style="visibility: inherit;" fill="rgb(0, 0, 0)" stroke="rgb(204, 204, 204)" stroke-width="1px"></line><line x1="1011.4375" y1="0" x2="1011.4375" y2="5" style="visibility: inherit;" fill="rgb(0, 0, 0)" stroke="rgb(204, 204, 204)" stroke-width="1px"></line></g><g transform="translate(0, 8)"><text x="0" y="0" dx="0em" dy="0.95em" style="text-anchor: middle; visibility: hidden; font-family: Roboto, sans-serif; font-size: 12px; font-weight: 200;" fill="rgb(33, 33, 33)" stroke="none" stroke-width="1px">-200</text><text x="84.28645833333333" y="0" dx="0em" dy="0.95em" style="text-anchor: middle; visibility: inherit; font-family: Roboto, sans-serif; font-size: 12px; font-weight: 200;" fill="rgb(33, 33, 33)" stroke="none" stroke-width="1px">0</text><text x="168.57291666666666" y="0" dx="0em" dy="0.95em" style="text-anchor: middle; visibility: inherit; font-family: Roboto, sans-serif; font-size: 12px; font-weight: 200;" fill="rgb(33, 33, 33)" stroke="none" stroke-width="1px">200</text><text x="252.859375" y="0" dx="0em" dy="0.95em" style="text-anchor: middle; visibility: inherit; font-family: Roboto, sans-serif; font-size: 12px; font-weight: 200;" fill="rgb(33, 33, 33)" stroke="none" stroke-width="1px">400</text><text x="337.1458333333333" y="0" dx="0em" dy="0.95em" style="text-anchor: middle; visibility: inherit; font-family: Roboto, sans-serif; font-size: 12px; font-weight: 200;" fill="rgb(33, 33, 33)" stroke="none" stroke-width="1px">600</text><text x="421.4322916666667" y="0" dx="0em" dy="0.95em" style="text-anchor: middle; visibility: inherit; font-family: Roboto, sans-serif; font-size: 12px; font-weight: 200;" fill="rgb(33, 33, 33)" stroke="none" stroke-width="1px">800</text><text x="505.71875" y="0" dx="0em" dy="0.95em" style="text-anchor: middle; visibility: inherit; font-family: Roboto, sans-serif; font-size: 12px; font-weight: 200;" fill="rgb(33, 33, 33)" stroke="none" stroke-width="1px">1k</text><text x="590.0052083333334" y="0" dx="0em" dy="0.95em" style="text-anchor: middle; visibility: inherit; font-family: Roboto, sans-serif; font-size: 12px; font-weight: 200;" fill="rgb(33, 33, 33)" stroke="none" stroke-width="1px">1.2k</text><text x="674.2916666666666" y="0" dx="0em" dy="0.95em" style="text-anchor: middle; visibility: inherit; font-family: Roboto, sans-serif; font-size: 12px; font-weight: 200;" fill="rgb(33, 33, 33)" stroke="none" stroke-width="1px">1.4k</text><text x="758.578125" y="0" dx="0em" dy="0.95em" style="text-anchor: middle; visibility: inherit; font-family: Roboto, sans-serif; font-size: 12px; font-weight: 200;" fill="rgb(33, 33, 33)" stroke="none" stroke-width="1px">1.6k</text><text x="842.8645833333334" y="0" dx="0em" dy="0.95em" style="text-anchor: middle; visibility: inherit; font-family: Roboto, sans-serif; font-size: 12px; font-weight: 200;" fill="rgb(33, 33, 33)" stroke="none" stroke-width="1px">1.8k</text><text x="927.1510416666666" y="0" dx="0em" dy="0.95em" style="text-anchor: middle; visibility: inherit; font-family: Roboto, sans-serif; font-size: 12px; font-weight: 200;" fill="rgb(33, 33, 33)" stroke="none" stroke-width="1px">2k</text><text x="1011.4375" y="0" dx="0em" dy="0.95em" style="text-anchor: middle; visibility: hidden; font-family: Roboto, sans-serif; font-size: 12px; font-weight: 200;" fill="rgb(33, 33, 33)" stroke="none" stroke-width="1px">2.2k</text></g><line x1="0" y1="0" x2="1011.4375" y2="0" fill="rgb(0, 0, 0)" stroke="rgb(204, 204, 204)" stroke-width="1px"></line></g></g></g></g></svg>